<?xml version="1.0" standalone="no"?>
<!DOCTYPE svg PUBLIC "-//W3C//DTD SVG 20010904//EN"
 "http://www.w3.org/TR/2001/REC-SVG-20010904/DTD/svg10.dtd">
<svg version="1.0" xmlns="http://www.w3.org/2000/svg"
 width="1600.000000pt" height="1600.000000pt" viewBox="0 0 1600.000000 1600.000000"
 preserveAspectRatio="xMidYMid meet">
<metadata>
Created by potrace 1.11, written by Peter Selinger 2001-2013
</metadata>
<g transform="translate(0.000000,1600.000000) scale(0.100000,-0.100000)"
fill="#000000" stroke="none">
<path d="M488 13570 c-241 -41 -409 -194 -469 -428 -19 -74 -19 -159 -19
-4411 0 -4799 -5 -4403 67 -4548 69 -141 197 -242 359 -283 73 -19 113 -20
735 -20 l658 0 6 37 c72 458 267 850 584 1177 826 849 2145 876 2999 62 318
-303 543 -707 622 -1116 12 -63 24 -125 26 -138 l4 -22 1264 0 c1225 0 1265 1
1340 20 213 54 364 209 411 422 14 66 15 474 13 4438 l-3 4365 -29 75 c-16 41
-40 93 -53 115 -64 103 -176 188 -307 233 l-81 27 -4040 1 c-2222 1 -4061 -2
-4087 -6z"/>
<path d="M10130 11134 c-213 -56 -355 -198 -417 -415 -17 -61 -18 -197 -18
-3199 l0 -3135 28 -80 c60 -169 165 -293 309 -363 87 -42 160 -62 232 -62 l42
0 17 103 c92 575 468 1125 988 1448 893 555 2087 366 2757 -436 243 -290 410
-663 463 -1033 l11 -82 357 0 c282 0 369 3 420 15 202 48 354 194 418 400 17
57 18 136 18 1710 0 1854 7 1687 -76 1940 -53 160 -215 487 -326 655 -99 149
-1359 1880 -1456 2000 -232 285 -369 411 -528 484 -153 70 -56 66 -1701 65
-1267 0 -1491 -2 -1538 -15z m2971 -1236 c40 -21 84 -46 96 -56 27 -24 1239
-1705 1344 -1865 121 -184 189 -340 189 -431 l0 -26 -1605 0 -1605 0 0 1210 0
1210 753 -2 753 -3 75 -37z"/>
<path d="M3790 4974 c-313 -40 -597 -175 -819 -389 -121 -117 -207 -232 -281
-377 -105 -208 -151 -397 -151 -633 0 -326 94 -597 297 -861 205 -265 515
-454 854 -520 140 -27 380 -25 519 5 565 120 987 541 1108 1104 25 116 25 428
0 544 -120 556 -546 987 -1092 1103 -98 21 -350 34 -435 24z"/>
<path d="M12280 4974 c-491 -63 -896 -347 -1114 -783 -103 -205 -141 -371
-140 -621 1 -247 32 -383 139 -605 190 -394 550 -673 988 -767 147 -31 399
-31 547 1 555 118 983 546 1101 1101 32 148 32 400 1 547 -120 558 -541 983
-1097 1104 -88 19 -345 33 -425 23z"/>
</g>
</svg>
